<mxfile host="Electron" agent="Mozilla/5.0 (Windows NT 10.0; Win64; x64) AppleWebKit/537.36 (KHTML, like Gecko) draw.io/24.7.8 Chrome/128.0.6613.36 Electron/32.0.1 Safari/537.36" version="24.7.8">
  <diagram name="第 1 页" id="VBm8U81opuY-e-PbDi-d">
    <mxGraphModel dx="704" dy="490" grid="1" gridSize="10" guides="1" tooltips="1" connect="1" arrows="1" fold="1" page="1" pageScale="1" pageWidth="600" pageHeight="400" math="0" shadow="0">
      <root>
        <mxCell id="0" />
        <mxCell id="1" parent="0" />
        <mxCell id="A9lpwe7PF3sEeHXWT0JJ-2" value="&lt;b&gt;ReaderInstance&lt;/b&gt;" style="html=1;whiteSpace=wrap;rounded=1;" vertex="1" parent="1">
          <mxGeometry x="230" y="160" width="110" height="50" as="geometry" />
        </mxCell>
        <mxCell id="A9lpwe7PF3sEeHXWT0JJ-7" style="edgeStyle=orthogonalEdgeStyle;rounded=1;orthogonalLoop=1;jettySize=auto;html=1;exitX=0.5;exitY=1;exitDx=0;exitDy=0;entryX=0.5;entryY=0;entryDx=0;entryDy=0;endArrow=block;endFill=0;" edge="1" parent="1" source="A9lpwe7PF3sEeHXWT0JJ-3" target="A9lpwe7PF3sEeHXWT0JJ-2">
          <mxGeometry relative="1" as="geometry" />
        </mxCell>
        <mxCell id="A9lpwe7PF3sEeHXWT0JJ-3" value="ReaderTab" style="html=1;whiteSpace=wrap;fontStyle=1;rounded=1;" vertex="1" parent="1">
          <mxGeometry x="80" y="70" width="110" height="50" as="geometry" />
        </mxCell>
        <mxCell id="A9lpwe7PF3sEeHXWT0JJ-8" style="edgeStyle=orthogonalEdgeStyle;rounded=1;orthogonalLoop=1;jettySize=auto;html=1;exitX=0.5;exitY=1;exitDx=0;exitDy=0;endArrow=block;endFill=0;" edge="1" parent="1" source="A9lpwe7PF3sEeHXWT0JJ-4">
          <mxGeometry relative="1" as="geometry">
            <mxPoint x="285" y="160" as="targetPoint" />
          </mxGeometry>
        </mxCell>
        <mxCell id="A9lpwe7PF3sEeHXWT0JJ-4" value="ReaderWindow" style="html=1;whiteSpace=wrap;fontStyle=1;rounded=1;" vertex="1" parent="1">
          <mxGeometry x="230" y="70" width="110" height="50" as="geometry" />
        </mxCell>
        <mxCell id="A9lpwe7PF3sEeHXWT0JJ-9" style="edgeStyle=orthogonalEdgeStyle;rounded=1;orthogonalLoop=1;jettySize=auto;html=1;exitX=0.5;exitY=1;exitDx=0;exitDy=0;entryX=0.5;entryY=0;entryDx=0;entryDy=0;endArrow=block;endFill=0;" edge="1" parent="1" source="A9lpwe7PF3sEeHXWT0JJ-5" target="A9lpwe7PF3sEeHXWT0JJ-2">
          <mxGeometry relative="1" as="geometry" />
        </mxCell>
        <mxCell id="A9lpwe7PF3sEeHXWT0JJ-5" value="ReaderPreview" style="html=1;whiteSpace=wrap;fontStyle=1;rounded=1;" vertex="1" parent="1">
          <mxGeometry x="380" y="70" width="110" height="50" as="geometry" />
        </mxCell>
        <mxCell id="A9lpwe7PF3sEeHXWT0JJ-6" value="&lt;p style=&quot;margin:0px;margin-top:4px;text-align:center;&quot;&gt;&lt;b&gt;Reader&lt;/b&gt;&lt;/p&gt;&lt;hr size=&quot;1&quot; style=&quot;border-style:solid;&quot;&gt;&lt;p style=&quot;margin:0px;margin-left:4px;&quot;&gt;- _readers: Array&amp;lt;ReaderInstance&amp;gt;&lt;/p&gt;&lt;hr size=&quot;1&quot; style=&quot;border-style:solid;&quot;&gt;&lt;p style=&quot;margin:0px;margin-left:4px;&quot;&gt;+ open(itemID: number): Promise&lt;/p&gt;" style="verticalAlign=top;align=left;overflow=fill;html=1;whiteSpace=wrap;rounded=1;" vertex="1" parent="1">
          <mxGeometry x="185" y="250" width="200" height="80" as="geometry" />
        </mxCell>
        <mxCell id="A9lpwe7PF3sEeHXWT0JJ-10" value="1" style="endArrow=open;html=1;endSize=12;startArrow=diamondThin;startSize=14;startFill=0;edgeStyle=orthogonalEdgeStyle;align=left;verticalAlign=bottom;rounded=1;fontColor=none;noLabel=1;exitX=0.5;exitY=0;exitDx=0;exitDy=0;entryX=0.5;entryY=1;entryDx=0;entryDy=0;" edge="1" parent="1" source="A9lpwe7PF3sEeHXWT0JJ-6" target="A9lpwe7PF3sEeHXWT0JJ-2">
          <mxGeometry x="-1" y="3" relative="1" as="geometry">
            <mxPoint x="90" y="230" as="sourcePoint" />
            <mxPoint x="250" y="230" as="targetPoint" />
          </mxGeometry>
        </mxCell>
      </root>
    </mxGraphModel>
  </diagram>
</mxfile>
